<svg width="74" height="68" viewBox="0 0 74 68" fill="none" xmlns="http://www.w3.org/2000/svg">
<path fill-rule="evenodd" clip-rule="evenodd" d="M60.4333 65.3644V19.6861H70.3V65.3644H60.4333ZM41.9333 65.3644V29.5625H51.8V65.3644H41.9333ZM23.4333 65.3644V39.4389H33.3V65.3644H23.4333ZM4.93333 65.3644V50.5498H14.8V65.3644H4.93333ZM72.7666 65.3644V17.217H57.9667V65.3644H54.2667V27.0934H39.4667V65.3644H35.7667V36.9698H20.9667V65.3644H17.2667V48.0807H2.46666V65.3644H1.23333C0.55253 65.3644 0 65.9162 0 66.5989C0 67.2817 0.55253 67.8335 1.23333 67.8335H2.46666H17.2667H20.9667H35.7667H39.4667H54.2667H57.9667H72.7666C73.4475 67.8335 74 67.2817 74 66.5989C74 65.9162 73.4475 65.3644 72.7666 65.3644Z" fill="#00B54E"/>
<path fill-rule="evenodd" clip-rule="evenodd" d="M9.87917 31.1508C10.087 31.1508 10.2998 31.0979 10.4928 30.986L55.0962 5.2341L52.3046 11.3708C52.023 11.9894 52.296 12.7186 52.9146 12.999C53.0794 13.0753 53.2528 13.1097 53.4237 13.1097C53.8911 13.1097 54.3375 12.8416 54.5441 12.389L58.9246 2.75976C58.9381 2.72902 58.9357 2.69581 58.9467 2.66384C58.9701 2.59866 58.9886 2.53594 59.0009 2.46707C59.007 2.43264 59.0267 2.40435 59.0291 2.36869C59.0304 2.35393 59.0242 2.34164 59.0255 2.32688C59.0279 2.28015 59.023 2.23711 59.0205 2.19037C59.0168 2.12273 59.0058 2.05878 58.991 1.99115C58.9812 1.94442 58.9787 1.89646 58.9627 1.85096C58.948 1.80669 58.9222 1.76978 58.9025 1.72674C58.8865 1.69846 58.8865 1.66525 58.8693 1.63574C58.8521 1.60623 58.8226 1.58901 58.8029 1.56072C58.777 1.5226 58.7574 1.48201 58.7266 1.44758C58.6947 1.41069 58.6541 1.38486 58.6172 1.35166C58.5668 1.30616 58.5163 1.26435 58.4598 1.22745C58.4216 1.20285 58.3872 1.1758 58.3454 1.15489C58.3319 1.14874 58.3245 1.13644 58.311 1.13029C58.2802 1.11676 58.247 1.11922 58.2163 1.10814C58.1486 1.08354 58.0822 1.06633 58.0121 1.05403C57.9801 1.04788 57.9543 1.02943 57.9211 1.02697L47.3916 0.00624906C46.7091 -0.0626219 46.1139 0.436675 46.0487 1.11061C45.9823 1.78699 46.4779 2.38836 47.153 2.45354L53.8628 3.1041L9.26307 28.856C8.674 29.1954 8.47354 29.9481 8.81297 30.5359C9.04048 30.9307 9.45368 31.1508 9.8792 31.1508H9.87917Z" fill="white"/>
</svg>
