<svg width="65" height="65" viewBox="0 0 65 65" fill="none" xmlns="http://www.w3.org/2000/svg">
<path fill-rule="evenodd" clip-rule="evenodd" d="M16.7142 20.8991L11.7396 16.4771C10.9442 15.7704 10.4881 14.7548 10.4881 13.6902V13.568C10.4881 12.6504 10.8454 11.7881 11.4944 11.139C12.0571 10.5763 12.8058 10.2666 13.6012 10.2666C14.3965 10.2666 15.1452 10.5763 15.7079 11.139L16.7142 12.1453L17.7205 11.139C18.8458 10.0144 20.8086 10.0144 21.9339 11.139C22.583 11.7881 22.9402 12.6504 22.9402 13.568V13.6901C22.9402 14.754 22.4842 15.7704 21.6888 16.4771L16.7142 20.8991ZM24.4967 13.6901V13.568C24.4967 12.2348 23.9776 10.9818 23.0344 10.0386C22.1783 9.1817 21.039 8.71008 19.8272 8.71008C18.6598 8.71008 17.5594 9.14824 16.7142 9.94673C15.869 9.14824 14.7686 8.71008 13.6012 8.71008C12.3894 8.71008 11.2501 9.1817 10.394 10.0386C9.45073 10.9818 8.93164 12.2348 8.93164 13.568V13.6901C8.93164 15.1984 9.57837 16.6382 10.7053 17.6398L16.7142 22.9817L22.7223 17.6406C23.85 16.639 24.4968 15.1992 24.4968 13.6902L24.4967 13.6901Z" fill="white"/>
<path fill-rule="evenodd" clip-rule="evenodd" d="M62.6774 34.4726C62.6774 35.0492 62.2084 35.5172 61.6328 35.5172H49.6531L44.5428 41.6481C44.3359 41.8946 43.8742 41.7285 43.8742 41.4068V35.5172H30.2941C29.7185 35.5172 29.2495 35.0492 29.2495 34.4726V29.2495H30.2941C32.0219 29.2495 33.428 27.8434 33.428 26.1156V10.4462H61.6328C62.2084 10.4462 62.6774 10.9142 62.6774 11.4909L62.6774 34.4726ZM37.6065 55.3651C37.6065 55.9417 37.1374 56.4097 36.5618 56.4097H22.9817V62.2993C22.9817 62.6221 22.52 62.7892 22.3132 62.5406L17.2029 56.4097H5.22312C4.64753 56.4097 4.1785 55.9417 4.1785 55.3651V34.4726C4.1785 33.896 4.64754 33.428 5.22312 33.428H15.5283L16.5301 34.6293C17.0002 35.1934 17.6907 35.5172 18.4251 35.5172C19.6556 35.5172 20.67 34.6084 20.8538 33.428H27.1602V34.4726C27.1602 36.2004 28.5663 37.6065 30.2941 37.6065H37.6065L37.6065 55.3651ZM27.1602 31.3387H20.8925V29.2495H27.1602V31.3387ZM3.13387 27.1602C2.55828 27.1602 2.08925 26.6922 2.08925 26.1156V3.13387C2.08925 2.55724 2.55829 2.08925 3.13387 2.08925H30.2941C30.8697 2.08925 31.3387 2.55724 31.3387 3.13387V26.1156C31.3387 26.6922 30.8697 27.1602 30.2941 27.1602H18.8032V33.0498C18.8032 33.3726 18.3415 33.5397 18.1347 33.2911L13.0244 27.1602H3.13387ZM61.6328 8.35699H33.428V3.13387C33.428 1.40606 32.0219 0 30.2941 0H3.13387C1.40606 0 0 1.40606 0 3.13387V26.1156C0 27.8434 1.40606 29.2495 3.13387 29.2495H12.0466L13.788 31.3387H5.22312C3.49531 31.3387 2.08925 32.7448 2.08925 34.4726V55.3651C2.08925 57.0929 3.49531 58.4989 5.22312 58.4989H16.2251L20.7086 63.8787C21.1787 64.4428 21.8692 64.7667 22.6036 64.7667C23.9637 64.7667 25.071 63.6594 25.071 62.2993V58.4989H36.5618C38.2896 58.4989 39.6957 57.0929 39.6957 55.3651V37.6065H41.785V41.4068C41.785 42.7669 42.8923 43.8742 44.2524 43.8742C44.9867 43.8742 45.6772 43.5504 46.1473 42.9863L50.6308 37.6065H61.6328C63.3606 37.6065 64.7667 36.2004 64.7667 34.4726V11.4909C64.7667 9.76305 63.3606 8.35699 61.6328 8.35699Z" fill="#00B54E"/>
<path fill-rule="evenodd" clip-rule="evenodd" d="M28.4876 44.4601C28.4876 45.2978 27.8064 45.9791 26.9687 45.9791C26.1309 45.9791 25.4497 45.2978 25.4497 44.4601C25.4497 43.6224 26.1309 42.9411 26.9687 42.9411C27.8064 42.9411 28.4876 43.6224 28.4876 44.4601ZM19.3737 42.9411C19.3737 42.1034 20.055 41.4221 20.8927 41.4221C21.7304 41.4221 22.4117 42.1034 22.4117 42.9411C22.4117 43.7788 21.7304 44.4601 20.8927 44.4601C20.055 44.4601 19.3737 43.7788 19.3737 42.9411ZM13.2978 44.4601C13.2978 43.6224 13.979 42.9411 14.8167 42.9411C15.6545 42.9411 16.3357 43.6224 16.3357 44.4601C16.3357 45.2978 15.6545 45.9791 14.8167 45.9791C13.979 45.9791 13.2978 45.2978 13.2978 44.4601ZM23.9307 44.4601C23.9307 44.9105 24.0355 45.3343 24.2117 45.7186C23.8844 45.4285 23.5198 45.1809 23.1256 44.9842C23.6208 44.4434 23.9307 43.7302 23.9307 42.9411C23.9307 41.2657 22.5682 39.9031 20.8927 39.9031C19.2173 39.9031 17.8547 41.2657 17.8547 42.9411C17.8547 43.7302 18.1646 44.4434 18.6598 44.9842C18.2656 45.1809 17.901 45.4285 17.5737 45.7186C17.7499 45.3343 17.8547 44.9105 17.8547 44.4601C17.8547 42.7847 16.4922 41.4221 14.8167 41.4221C13.1413 41.4221 11.7788 42.7847 11.7788 44.4601C11.7788 45.2697 12.1015 46.0011 12.6195 46.5464C11.2144 47.3234 10.2598 48.8196 10.2598 50.5361V52.0551H11.7788V50.5361C11.7788 48.8606 13.1413 47.4981 14.8167 47.4981C15.2952 47.4981 15.754 47.612 16.1717 47.8209C16.0517 48.168 15.9636 48.531 15.921 48.91L15.5808 51.9707L17.0899 52.1386L17.4302 49.0778C17.6269 47.3112 19.1155 45.9791 20.8927 45.9791C22.6699 45.9791 24.1585 47.3113 24.3552 49.0778L24.6955 52.1386L26.2046 51.9707L25.8644 48.91C25.8226 48.531 25.7337 48.168 25.6137 47.8209C26.0314 47.612 26.4902 47.4981 26.9687 47.4981C28.6441 47.4981 30.0066 48.8606 30.0066 50.5361V52.055H31.5256V50.5361C31.5256 48.8196 30.571 47.3234 29.1659 46.5464C29.6839 46.0011 30.0066 45.2697 30.0066 44.4601C30.0066 42.7846 28.6441 41.4221 26.9687 41.4221C25.2932 41.4221 23.9307 42.7846 23.9307 44.4601V44.4601Z" fill="white"/>
<path fill-rule="evenodd" clip-rule="evenodd" d="M53.4303 27.2632C53.4303 28.0503 52.7902 28.6904 52.0032 28.6904H48.867C47.4505 28.6904 46.0769 28.3043 44.8674 27.5786V21.85L45.5067 21.2106C46.4437 20.2737 47.1094 19.0984 47.4305 17.8132C47.5097 17.4957 47.7945 17.2731 48.1227 17.2731C48.5245 17.2731 48.9041 17.4486 49.1638 17.7561C49.4236 18.063 49.5349 18.4662 49.4685 18.8629L49.0204 21.5545H52.0032C52.7902 21.5545 53.4303 22.1946 53.4303 22.9817V27.2632ZM40.5859 28.6904V21.5545H43.4402L43.4409 28.6904H40.5859ZM52.0032 20.1274H50.7044L50.8764 19.097C51.0113 18.2856 50.7844 17.4607 50.2527 16.8335C49.7211 16.2055 48.9448 15.8459 48.1227 15.8459C47.1387 15.8459 46.2845 16.5131 46.0455 17.4671C45.7872 18.5018 45.252 19.4466 44.4977 20.2016L44.2872 20.4121C44.0496 20.2358 43.7584 20.1274 43.4402 20.1274H40.5859C39.7988 20.1274 39.1587 20.7675 39.1587 21.5545V28.6903C39.1587 29.4774 39.7988 30.1175 40.5859 30.1175H43.4402C44.0631 30.1175 44.5876 29.7143 44.7824 29.157C46.0483 29.785 47.4391 30.1175 48.867 30.1175H52.0032C53.5773 30.1175 54.8575 28.8373 54.8575 27.2632V22.9817C54.8575 21.4075 53.5773 20.1274 52.0032 20.1274L52.0032 20.1274Z" fill="white"/>
</svg>
