<svg width="74" height="55" viewBox="0 0 74 55" fill="none" xmlns="http://www.w3.org/2000/svg">
<path fill-rule="evenodd" clip-rule="evenodd" d="M67.8299 44.4C67.1492 44.4 66.5967 43.8475 66.5967 43.1667V3.70001C66.5967 3.02168 66.0442 2.46668 65.3635 2.46668H8.63605C7.95532 2.46668 7.40285 3.02168 7.40285 3.70001V43.1667C7.40285 43.8475 6.85038 44.4 6.16965 44.4C5.48892 44.4 4.93645 43.8475 4.93645 43.1667V3.70001C4.93645 1.66008 6.59634 1e-05 8.63606 1e-05H65.3635C67.4032 1e-05 69.0631 1.66008 69.0631 3.70001V43.1667C69.0631 43.8475 68.5106 44.4 67.8299 44.4H67.8299Z" fill="#00B54E"/>
<path fill-rule="evenodd" clip-rule="evenodd" d="M67.8333 54.2633H6.16667C2.76514 54.2633 0 51.4982 0 48.0966C0 47.4158 0.55253 46.8633 1.23333 46.8633H28.3667C29.0475 46.8633 29.6 47.4158 29.6 48.0966C29.6 48.7774 29.0475 49.33 28.3667 49.33H2.67879C3.18692 50.7656 4.55839 51.7966 6.16666 51.7966H67.8333C69.4416 51.7966 70.8131 50.7656 71.3212 49.33H45.6333C44.9525 49.33 44.4 48.7774 44.4 48.0966C44.4 47.4158 44.9525 46.8633 45.6333 46.8633H72.7667C73.4475 46.8633 74 47.4158 74 48.0966C74 51.4982 71.2349 54.2633 67.8333 54.2633Z" fill="#00B54E"/>
<path fill-rule="evenodd" clip-rule="evenodd" d="M25.8957 35.2667C25.6072 35.2667 25.3187 35.1655 25.0845 34.9609L15.2214 26.3294C14.9527 26.0951 14.7998 25.7597 14.7998 25.4021C14.7998 25.0446 14.9527 24.7092 15.2214 24.4749L25.0845 15.8434C25.5949 15.3921 26.3716 15.4415 26.8253 15.9593C27.2741 16.4723 27.2223 17.2491 26.7094 17.698L17.9042 25.4021L26.7069 33.1063C27.2198 33.5552 27.2716 34.332 26.8228 34.8449C26.5787 35.1236 26.2384 35.2667 25.8957 35.2667L25.8957 35.2667Z" fill="white"/>
<path fill-rule="evenodd" clip-rule="evenodd" d="M33.298 37.74C33.1697 37.74 33.0389 37.7203 32.9081 37.6783C32.2615 37.4612 31.9135 36.7629 32.1282 36.1164L39.5321 13.9094C39.7468 13.2629 40.4403 12.9101 41.0918 13.1297C41.7385 13.3468 42.0864 14.0451 41.8717 14.6916L34.4678 36.8986C34.2951 37.4118 33.8138 37.74 33.298 37.74Z" fill="white"/>
<path fill-rule="evenodd" clip-rule="evenodd" d="M48.0975 35.2666C47.7545 35.2666 47.4141 35.1236 47.1698 34.8449C46.7208 34.332 46.7726 33.5552 47.2858 33.1064L56.0939 25.4026L47.2858 17.6988C46.7726 17.25 46.7208 16.4732 47.1698 15.9603C47.6188 15.4424 48.3985 15.3956 48.9117 15.8444L58.7807 24.4754C59.0472 24.7097 59.2002 25.045 59.2002 25.4026C59.2002 25.7602 59.0472 26.0956 58.7783 26.3298L48.9092 34.9608C48.6748 35.1655 48.3862 35.2666 48.0975 35.2666H48.0975Z" fill="white"/>
</svg>
