<svg width="63" height="64" viewBox="0 0 63 64" fill="none" xmlns="http://www.w3.org/2000/svg">
<path fill-rule="evenodd" clip-rule="evenodd" d="M51.2024 60.4614H2.72363V11.9826H26.963V9.25906H0.000110006V63.1849H53.9259V32.9537H51.2024L51.2024 60.4614Z" fill="#00B54E"/>
<path fill-rule="evenodd" clip-rule="evenodd" d="M47.4774 9.35033L53.5596 15.4325L25.7812 43.1202L19.7897 37.038L47.4774 9.35033ZM59.0064 9.895L55.466 13.5262L49.4746 7.44396L53.1057 3.90357L59.0064 9.895ZM18.0649 39.1259L23.6025 44.7543L16.8848 45.8436L18.0649 39.1259ZM15.6139 37.2196L13.7075 49.1117L25.5996 47.2053L26.7797 45.9344L62.9099 9.89501L52.9242 6.10352e-05L16.8848 36.0395L15.6139 37.2196Z" fill="white"/>
</svg>
