<svg width="38" height="38" viewBox="0 0 38 38" fill="none" xmlns="http://www.w3.org/2000/svg">
<path fill-rule="evenodd" clip-rule="evenodd" d="M18.9993 8.4904C21.4264 8.4904 23.655 9.32147 25.4341 10.7036L30.8944 5.49373C27.7197 2.69491 23.564 0.983379 18.9993 0.983379C12.0822 0.983379 6.08358 4.88689 3.06477 10.6072L9.13645 15.401C10.6073 11.3722 14.4617 8.49041 18.9993 8.49041L18.9993 8.4904Z" fill="#F5594E"/>
<path fill-rule="evenodd" clip-rule="evenodd" d="M36.8604 21.2526C36.9542 20.5143 37.0164 19.7611 37.0164 18.9971C37.0164 17.7087 36.8757 16.4541 36.6189 15.2424H18.9998V22.7518H28.7381C27.9502 24.8 26.5476 26.5331 24.7621 27.7372L30.8569 32.5504C34.0878 29.7136 36.2987 25.7411 36.8604 21.2526V21.2526Z" fill="#39A0F4"/>
<path fill-rule="evenodd" clip-rule="evenodd" d="M8.48466 18.997C8.48466 17.7304 8.72001 16.5217 9.13017 15.3972L3.06207 10.6024C1.73955 13.1105 0.982884 15.9639 0.982884 18.997C0.982884 21.9962 1.72564 24.818 3.02069 27.3057L9.09648 22.5048C8.70737 21.4063 8.48466 20.229 8.48466 18.997V18.997Z" fill="#FFC721"/>
<path fill-rule="evenodd" clip-rule="evenodd" d="M18.9991 29.5085C14.4266 29.5085 10.547 26.5827 9.10174 22.5049L3.02185 27.3057C6.02614 33.0726 12.0475 37.0166 18.9991 37.0166C23.5449 37.0166 27.6902 35.3275 30.8561 32.5482L24.7614 27.7358C23.1147 28.8462 21.1437 29.5085 18.9991 29.5085V29.5085Z" fill="#00CA6F"/>
<path opacity="0.1" fill-rule="evenodd" clip-rule="evenodd" d="M18.9964 36.6413C13.6939 36.6413 8.92599 34.4536 5.55504 30.9682C8.85487 34.6712 13.646 37.0166 18.9964 37.0166C24.2973 37.0166 29.0488 34.7175 32.3412 31.0725C28.9802 34.5013 24.2485 36.6413 18.9964 36.6413Z" fill="white"/>
<path opacity="0.1" fill-rule="evenodd" clip-rule="evenodd" d="M18.9998 22.3768V22.7577H28.7402L28.8924 22.3768H18.9998Z" fill="white"/>
<path fill-rule="evenodd" clip-rule="evenodd" d="M37.0095 19.2214C37.0105 19.1468 37.0166 19.0733 37.0166 18.9984C37.0166 18.9772 37.0138 18.9567 37.0137 18.9355C37.0129 19.031 37.0088 19.1255 37.0095 19.2214Z" fill="#262626"/>
<path opacity="0.2" fill-rule="evenodd" clip-rule="evenodd" d="M18.9998 15.2424V15.6232H36.6925C36.6689 15.4975 36.6431 15.3671 36.6169 15.2424H18.9998Z" fill="#0D0D0D"/>
<path fill-rule="evenodd" clip-rule="evenodd" d="M36.6186 15.2465H18.9995V22.7535H28.7378C27.2233 26.6895 23.4694 29.5097 18.9995 29.5097C13.1952 29.5097 8.48981 24.8043 8.48981 19C8.48981 13.1956 13.1952 8.49031 18.9995 8.49031C21.1042 8.49031 23.0441 9.1369 24.6875 10.2029C24.9391 10.3664 25.1986 10.5199 25.4349 10.7035L30.8957 5.4937L30.7725 5.39894C27.6128 2.66054 23.5089 0.983389 18.9995 0.983389C9.04917 0.983389 0.982885 9.04967 0.982885 19C0.982885 28.9503 9.04917 37.0166 18.9995 37.0166C28.1845 37.0166 35.7482 30.1384 36.8601 21.2548C36.954 20.5167 37.0161 19.7638 37.0161 19C37.0161 17.7121 36.8755 16.4579 36.6186 15.2466V15.2465Z" fill="url(#paint0_linear_102_368)"/>
<path opacity="0.1" fill-rule="evenodd" clip-rule="evenodd" d="M24.6861 9.82854C23.0427 8.76256 21.1029 8.116 18.9981 8.116C13.1937 8.116 8.48834 12.8211 8.48834 18.6252C8.48834 18.6885 8.48919 18.738 8.49029 18.8012C8.59154 13.0846 13.2571 8.49133 18.9981 8.49133C21.1028 8.49133 23.0427 9.13789 24.6861 10.2039C24.9376 10.3673 25.1972 10.5208 25.4335 10.7044L30.8943 5.49484L25.4335 10.329C25.1972 10.1455 24.9377 9.99201 24.6861 9.82854H24.6861Z" fill="white"/>
<path opacity="0.2" fill-rule="evenodd" clip-rule="evenodd" d="M18.9986 1.35868C23.465 1.35868 27.5304 3.00757 30.6777 5.69953L30.8941 5.4931L30.7289 5.34926C27.5695 2.61121 23.5077 0.983379 18.9986 0.983379C9.04875 0.983379 0.982895 9.04865 0.982895 18.9977C0.982895 19.061 0.991694 19.1222 0.992334 19.1854C1.09405 9.3238 9.11206 1.35868 18.9986 1.35868Z" fill="#0D0D0D"/>
<defs>
<linearGradient id="paint0_linear_102_368" x1="0.980005" y1="37.02" x2="37.02" y2="37.02" gradientUnits="userSpaceOnUse">
<stop stop-color="white" stop-opacity="0.2"/>
<stop offset="1" stop-color="white" stop-opacity="0.01"/>
</linearGradient>
</defs>
</svg>
